<?xml version="1.0" encoding="iso-8859-1"?>
<!-- Generator: Adobe Illustrator 19.0.0, SVG Export Plug-In . SVG Version: 6.00 Build 0)  -->
<svg version="1.1" id="Capa_1" xmlns="http://www.w3.org/2000/svg" xmlns:xlink="http://www.w3.org/1999/xlink" x="0px" y="0px"
	 viewBox="0 0 436.907 436.907" style="enable-background:new 0 0 436.907 436.907;" xml:space="preserve">
<circle style="fill:#E05B49;" cx="218.453" cy="218.453" r="218.453"/>
<path style="opacity:0.1;enable-background:new    ;" d="M436.907,218.453c0-1.128-0.068-2.239-0.085-3.363L312.185,90.453H162.032
	l-37.31,31.236v224.764l90.368,90.368c1.124,0.017,2.235,0.085,3.363,0.085C339.102,436.907,436.907,339.102,436.907,218.453z"/>
<polyline style="fill:#EBF0F3;" points="124.722,121.689 124.722,346.453 312.185,346.453 312.185,90.453 162.032,90.453 "/>
<polygon style="fill:#D5D6DB;" points="162.032,90.453 162.032,121.689 124.722,121.689 "/>
<rect x="234.906" y="140.052" style="fill:#27A2DB;" width="60.757" height="71.438"/>
<g>
	<rect x="145.101" y="139.902" style="fill:#D5D6DB;" width="78.541" height="9.977"/>
	<rect x="145.101" y="160.758" style="fill:#D5D6DB;" width="78.541" height="9.977"/>
	<rect x="145.101" y="181.579" style="fill:#D5D6DB;" width="78.541" height="9.977"/>
	<rect x="145.101" y="202.4" style="fill:#D5D6DB;" width="78.541" height="9.977"/>
	<rect x="145.101" y="223.188" style="fill:#D5D6DB;" width="150.562" height="9.977"/>
	<rect x="145.101" y="244.043" style="fill:#D5D6DB;" width="150.562" height="9.977"/>
	<rect x="145.101" y="264.864" style="fill:#D5D6DB;" width="150.562" height="9.977"/>
	<rect x="145.101" y="285.686" style="fill:#D5D6DB;" width="150.562" height="9.977"/>
	<rect x="145.101" y="306.507" style="fill:#D5D6DB;" width="150.562" height="9.977"/>
</g>
<g>
</g>
<g>
</g>
<g>
</g>
<g>
</g>
<g>
</g>
<g>
</g>
<g>
</g>
<g>
</g>
<g>
</g>
<g>
</g>
<g>
</g>
<g>
</g>
<g>
</g>
<g>
</g>
<g>
</g>
</svg>
