<svg enable-background="new 0 0 140 140" height="512" viewBox="0 0 140 140" width="512" xmlns="http://www.w3.org/2000/svg"><circle cx="70" cy="70" fill="#509fd7" r="64"/><path d="m117.2299805 63.8901367h3.4899902l12.9200439 12.9199219c-3.4000244 32.1401367-30.5899658 57.1899414-63.6400146 57.1899414-.8400879 0-1.6599121-.0302734-2.4899902-.0600586l-28.6500244-28.6499023v-55.8100586h12.0499268l5.8500977 4.7202148v-4.7202148h46.0600586z" opacity=".1"/><path d="m107.3920593 54.2002792v51.0889893h-68.531723v-55.8104286h12.0477791l5.8552666 4.7214393z" fill="#d6b24e"/><path d="m56.763382 49.47884h46.056469v19.271925h-46.056469z" fill="#e6e7e8"/><path d="m107.3898239 105.2857437h-68.5272522l13.327694-41.3919678h68.5272483z" fill="#ffd25a"/><path d="m62.184765 55.810303h35.213924v1.65925h-35.213924z" fill="#cdcdcd"/><path d="m70.329613 59.850811h18.924234v1.65925h-18.924234z" fill="#cdcdcd"/><circle cx="102.82" cy="100.363" fill="#304651" r="10.916"/><path d="m107.410675 98.6125641h-2.8394165v-2.8394165c0-.9666061-.7842255-1.7508392-1.7508392-1.7508392-.9666061 0-1.7508392.7842331-1.7508392 1.7508392v2.8394165h-2.8405533c-.9666138 0-1.7508392.7842331-1.7508392 1.7508392 0 .9666138.7842255 1.7508392 1.7508392 1.7508392h2.8405533v2.8394165c0 .9666138.7842331 1.7508392 1.7508392 1.7508392.9666138 0 1.7508392-.7842255 1.7508392-1.7508392v-2.8394165h2.8394165c.9666061 0 1.7508392-.7842255 1.7508392-1.7508392.0000001-.9666061-.784233-1.7508392-1.7508392-1.7508392z" fill="#e6e7e8"/></svg>